# xmcd CD database file
#
# Track frame offsets:
#	150
#	6897
#	21910
#	41180
#	56970
#	72047
#	90970
#	106300
#	119370
#	136065
#	153070
#	166825
#	182917
#	200200
#	221032
#
# Disc length: 3607 seconds
#
# Revision: 0
# Processed by: cddbd v1.5PL3 Copyright (c) Steve Scherf et al.
# Submitted via: CDex 1.51
#
DISCID=ce0e150f
DTITLE=PLEYMO - ROCK
DYEAR=2003
DGENRE=Rock
TTITLE0=Le Voyage de Rock
TTITLE1=Rock
TTITLE2=1977
TTITLE3=Divine Excuse
TTITLE4=L'insolent
TTITLE5=Modaddiction
TTITLE6=Sommes Nous?
TTITLE7=Zorro
TTITLE8=Polyester Mome
TTITLE9=Une Vie de Details
TTITLE10=Cherubin
TTITLE11=Anemia
TTITLE12=Kongen (feat. Enhancer)
TTITLE13=Laugh Calvin
TTITLE14=1977 (accoustic version)
EXTD=YEAR: 2003
EXTT0=
EXTT1=
EXTT2=
EXTT3=
EXTT4=
EXTT5=
EXTT6=
EXTT7=
EXTT8=
EXTT9=
EXTT10=
EXTT11=
EXTT12=
EXTT13=
EXTT14=
PLAYORDER=
